<svg width="16" height="16" viewBox="0 0 16 16" fill="none" xmlns="http://www.w3.org/2000/svg">
<path d="M8.00325 8.00656C9.59696 8.00656 10.8961 6.58713 10.8961 4.85942C10.8961 3.14513 9.61039 1.79913 8.00325 1.79913C6.4161 1.79913 5.11039 3.17199 5.11039 4.87285C5.11696 6.59371 6.4161 8.00656 8.00325 8.00656ZM8.00325 6.99542C7.02553 6.99542 6.18839 6.05828 6.18839 4.87256C6.18839 3.70771 7.0121 2.81028 8.00325 2.81028C9.00753 2.81028 9.81782 3.69428 9.81782 4.85942C9.81782 6.04456 8.9941 6.99542 8.00325 6.99542ZM3.79782 14.2011H12.2087C13.3201 14.2011 13.8492 13.866 13.8492 13.1297C13.8492 11.3748 11.6392 8.83713 8.00325 8.83713C4.36696 8.83713 2.15039 11.3751 2.15039 13.1294C2.15039 13.866 2.67953 14.2011 3.79782 14.2011ZM3.47639 13.1894C3.30211 13.1894 3.22868 13.1426 3.22868 13.002C3.22868 11.9037 4.92953 9.8477 8.00296 9.8477C11.077 9.8477 12.771 11.9037 12.771 13.002C12.771 13.1426 12.7041 13.1894 12.5301 13.1894H3.47639Z" fill="#606060"/>
</svg>
