<svg width="13" height="13" viewBox="0 0 13 13" fill="none" xmlns="http://www.w3.org/2000/svg">
<g id="fluent:people-community-32-regular">
<path id="Vector" d="M3.25 2.84375C3.25 2.62826 3.3356 2.4216 3.48798 2.26923C3.64035 2.11685 3.84701 2.03125 4.0625 2.03125C4.27799 2.03125 4.48465 2.11685 4.63702 2.26923C4.7894 2.4216 4.875 2.62826 4.875 2.84375C4.875 3.05924 4.7894 3.2659 4.63702 3.41827C4.48465 3.57065 4.27799 3.65625 4.0625 3.65625C3.84701 3.65625 3.64035 3.57065 3.48798 3.41827C3.3356 3.2659 3.25 3.05924 3.25 2.84375ZM4.0625 1.21875C3.63152 1.21875 3.2182 1.38995 2.91345 1.6947C2.6087 1.99945 2.4375 2.41277 2.4375 2.84375C2.4375 3.27473 2.6087 3.68805 2.91345 3.9928C3.2182 4.29755 3.63152 4.46875 4.0625 4.46875C4.49348 4.46875 4.9068 4.29755 5.21155 3.9928C5.5163 3.68805 5.6875 3.27473 5.6875 2.84375C5.6875 2.41277 5.5163 1.99945 5.21155 1.6947C4.9068 1.38995 4.49348 1.21875 4.0625 1.21875ZM1.82812 5.28125C1.55876 5.28125 1.30044 5.38825 1.10997 5.57872C0.919503 5.76919 0.8125 6.02751 0.8125 6.29688V6.39844C0.8125 6.51016 0.8125 7.14797 1.24069 7.76344C1.54822 8.20544 2.04628 8.59503 2.82466 8.79531C2.98158 8.49533 3.2279 8.25157 3.5295 8.09778C2.58294 7.99581 2.13322 7.62369 1.90775 7.2995C1.72629 7.0338 1.62787 6.72018 1.625 6.39844V6.29688C1.625 6.243 1.6464 6.19134 1.68449 6.15324C1.72259 6.11515 1.77425 6.09375 1.82812 6.09375H4.26562C4.26562 5.80694 4.31966 5.53312 4.41797 5.28125H1.82812ZM11.7593 7.76344C11.4518 8.20544 10.9537 8.59503 10.1753 8.79531C10.0184 8.49535 9.77208 8.2516 9.4705 8.09778C10.4171 7.99581 10.8668 7.62369 11.0923 7.2995C11.2737 7.0338 11.3721 6.72018 11.375 6.39844V6.29688C11.375 6.243 11.3536 6.19134 11.3155 6.15324C11.2774 6.11515 11.2257 6.09375 11.1719 6.09375H8.73438C8.73438 5.80694 8.68034 5.53312 8.58203 5.28125H11.1719C11.4412 5.28125 11.6996 5.38825 11.89 5.57872C12.0805 5.76919 12.1875 6.02751 12.1875 6.29688V6.39844C12.1875 6.51016 12.1875 7.14797 11.7593 7.76344ZM8.125 2.84375C8.125 2.62826 8.2106 2.4216 8.36298 2.26923C8.51535 2.11685 8.72201 2.03125 8.9375 2.03125C9.15299 2.03125 9.35965 2.11685 9.51202 2.26923C9.6644 2.4216 9.75 2.62826 9.75 2.84375C9.75 3.05924 9.6644 3.2659 9.51202 3.41827C9.35965 3.57065 9.15299 3.65625 8.9375 3.65625C8.72201 3.65625 8.51535 3.57065 8.36298 3.41827C8.2106 3.2659 8.125 3.05924 8.125 2.84375ZM8.9375 1.21875C8.50652 1.21875 8.0932 1.38995 7.78845 1.6947C7.48371 1.99945 7.3125 2.41277 7.3125 2.84375C7.3125 3.27473 7.48371 3.68805 7.78845 3.9928C8.0932 4.29755 8.50652 4.46875 8.9375 4.46875C9.36848 4.46875 9.7818 4.29755 10.0865 3.9928C10.3913 3.68805 10.5625 3.27473 10.5625 2.84375C10.5625 2.41277 10.3913 1.99945 10.0865 1.6947C9.7818 1.38995 9.36848 1.21875 8.9375 1.21875ZM6.5 5.28125C6.28451 5.28125 6.07785 5.36685 5.92548 5.51923C5.7731 5.6716 5.6875 5.87826 5.6875 6.09375C5.6875 6.30924 5.7731 6.5159 5.92548 6.66827C6.07785 6.82065 6.28451 6.90625 6.5 6.90625C6.71549 6.90625 6.92215 6.82065 7.07452 6.66827C7.2269 6.5159 7.3125 6.30924 7.3125 6.09375C7.3125 5.87826 7.2269 5.6716 7.07452 5.51923C6.92215 5.36685 6.71549 5.28125 6.5 5.28125ZM4.875 6.09375C4.875 5.66277 5.0462 5.24945 5.35095 4.9447C5.6557 4.63995 6.06902 4.46875 6.5 4.46875C6.93098 4.46875 7.3443 4.63995 7.64905 4.9447C7.95379 5.24945 8.125 5.66277 8.125 6.09375C8.125 6.52473 7.95379 6.93805 7.64905 7.2428C7.3443 7.54754 6.93098 7.71875 6.5 7.71875C6.06902 7.71875 5.6557 7.54754 5.35095 7.2428C5.0462 6.93805 4.875 6.52473 4.875 6.09375ZM3.25 9.54688C3.25 9.27751 3.357 9.01919 3.54747 8.82872C3.73794 8.63825 3.99626 8.53125 4.26562 8.53125H8.73438C8.86775 8.53125 8.99982 8.55752 9.12304 8.60856C9.24626 8.6596 9.35822 8.73441 9.45253 8.82872C9.54684 8.92303 9.62165 9.03499 9.67269 9.15821C9.72373 9.28143 9.75 9.4135 9.75 9.54688V9.64844C9.75 9.76016 9.75 10.398 9.32181 11.0134C8.87494 11.6557 8.02588 12.1875 6.5 12.1875C4.97453 12.1875 4.12506 11.6557 3.67819 11.0134C3.25 10.398 3.25 9.76056 3.25 9.64844V9.54688ZM4.26562 9.34375C4.21175 9.34375 4.16009 9.36515 4.12199 9.40324C4.0839 9.44134 4.0625 9.493 4.0625 9.54688V9.64844C4.0625 9.71547 4.06291 10.1441 4.34525 10.5495C4.60931 10.9293 5.18213 11.375 6.5 11.375C7.81828 11.375 8.39069 10.9293 8.65475 10.5495C8.83621 10.2838 8.93463 9.97017 8.9375 9.64844V9.54688C8.9375 9.493 8.9161 9.44134 8.87801 9.40324C8.83991 9.36515 8.78825 9.34375 8.73438 9.34375H4.26562Z" fill="#2362B4"/>
</g>
</svg>
