<svg width="16" height="17" viewBox="0 0 16 17" fill="none" xmlns="http://www.w3.org/2000/svg">
<g id="material-symbols:work-outline">
<path id="Vector" d="M2.66634 14.5C2.29967 14.5 1.9859 14.3696 1.72501 14.1087C1.46412 13.8478 1.33345 13.5338 1.33301 13.1667V5.83333C1.33301 5.46667 1.46367 5.15289 1.72501 4.892C1.98634 4.63111 2.30012 4.50044 2.66634 4.5H5.33301V3.16667C5.33301 2.8 5.46368 2.48622 5.72501 2.22533C5.98634 1.96444 6.30012 1.83378 6.66634 1.83333H9.33301C9.69967 1.83333 10.0137 1.964 10.275 2.22533C10.5363 2.48667 10.6668 2.80044 10.6663 3.16667V4.5H13.333C13.6997 4.5 14.0137 4.63067 14.275 4.892C14.5363 5.15333 14.6668 5.46711 14.6663 5.83333V13.1667C14.6663 13.5333 14.5359 13.8473 14.275 14.1087C14.0141 14.37 13.7001 14.5004 13.333 14.5H2.66634ZM2.66634 13.1667H13.333V5.83333H2.66634V13.1667ZM6.66634 4.5H9.33301V3.16667H6.66634V4.5Z" fill="#2362B4"/>
</g>
</svg>
