<svg width="55" height="55" viewBox="0 0 55 55" fill="none" xmlns="http://www.w3.org/2000/svg">
<g id="mdi:youtube">
<path id="Vector" d="M22.9163 34.375L34.8101 27.5L22.9163 20.625V34.375ZM49.408 16.4312C49.7059 17.5083 49.9122 18.9521 50.0497 20.7854C50.2101 22.6187 50.2788 24.2 50.2788 25.575L50.4163 27.5C50.4163 32.5187 50.0497 36.2083 49.408 38.5687C48.8351 40.6312 47.5059 41.9604 45.4434 42.5333C44.3663 42.8312 42.3955 43.0375 39.3705 43.175C36.3913 43.3354 33.6643 43.4042 31.1434 43.4042L27.4997 43.5417C17.8976 43.5417 11.9163 43.175 9.55592 42.5333C7.49342 41.9604 6.16426 40.6312 5.59134 38.5687C5.29342 37.4917 5.08717 36.0479 4.94967 34.2146C4.78926 32.3812 4.72051 30.8 4.72051 29.425L4.58301 27.5C4.58301 22.4812 4.94967 18.7917 5.59134 16.4312C6.16426 14.3687 7.49342 13.0396 9.55592 12.4667C10.633 12.1687 12.6038 11.9625 15.6288 11.825C18.608 11.6646 21.3351 11.5958 23.8559 11.5958L27.4997 11.4583C37.1018 11.4583 43.083 11.825 45.4434 12.4667C47.5059 13.0396 48.8351 14.3687 49.408 16.4312Z" fill="black"/>
</g>
</svg>
