
<svg width="16" height="17" viewBox="0 0 16 17" fill="none" xmlns="http://www.w3.org/2000/svg">
<g id="ph:globe">
<path id="Vector" d="M8 2C6.71442 2 5.45772 2.38122 4.3888 3.09545C3.31988 3.80968 2.48676 4.82484 1.99479 6.01256C1.50282 7.20028 1.37409 8.50721 1.6249 9.76809C1.8757 11.029 2.49477 12.1872 3.40381 13.0962C4.31285 14.0052 5.47104 14.6243 6.73192 14.8751C7.99279 15.1259 9.29973 14.9972 10.4874 14.5052C11.6752 14.0132 12.6903 13.1801 13.4046 12.1112C14.1188 11.0423 14.5 9.78558 14.5 8.5C14.4982 6.77665 13.8128 5.12441 12.5942 3.90582C11.3756 2.68722 9.72335 2.00182 8 2ZM6.35188 11H9.64813C9.3125 12.1462 8.75 13.1794 8 13.9931C7.25 13.1794 6.6875 12.1462 6.35188 11ZM6.125 10C5.95917 9.00688 5.95917 7.99312 6.125 7H9.875C10.0408 7.99312 10.0408 9.00688 9.875 10H6.125ZM2.5 8.5C2.49957 7.99277 2.56961 7.48795 2.70813 7H5.11188C4.96271 7.99444 4.96271 9.00556 5.11188 10H2.70813C2.56961 9.51205 2.49957 9.00723 2.5 8.5ZM9.64813 6H6.35188C6.6875 4.85375 7.25 3.82063 8 3.00688C8.75 3.82063 9.3125 4.85375 9.64813 6ZM10.8881 7H13.2919C13.5694 7.98075 13.5694 9.01925 13.2919 10H10.8881C11.0373 9.00556 11.0373 7.99444 10.8881 7ZM12.8981 6H10.6838C10.4286 4.99594 10.0001 4.04415 9.4175 3.1875C10.1618 3.38751 10.856 3.74108 11.4554 4.22546C12.0549 4.70984 12.5463 5.31431 12.8981 6ZM6.5825 3.1875C5.99994 4.04415 5.57142 4.99594 5.31625 6H3.10188C3.45371 5.31431 3.94515 4.70984 4.54459 4.22546C5.14404 3.74108 5.83822 3.38751 6.5825 3.1875ZM3.10188 11H5.31625C5.57142 12.0041 5.99994 12.9558 6.5825 13.8125C5.83822 13.6125 5.14404 13.2589 4.54459 12.7745C3.94515 12.2902 3.45371 11.6857 3.10188 11ZM9.4175 13.8125C10.0001 12.9558 10.4286 12.0041 10.6838 11H12.8981C12.5463 11.6857 12.0549 12.2902 11.4554 12.7745C10.856 13.2589 10.1618 13.6125 9.4175 13.8125Z" fill="#2362B4"/>
</g>
</svg>
