<svg width="10" height="16" viewBox="0 0 10 16" fill="none" xmlns="http://www.w3.org/2000/svg">
<path id="Vector" d="M0 15.2114V0.321798C0.000496356 0.258049 0.0242431 0.195831 0.068266 0.14295C0.112289 0.090069 0.174603 0.0488877 0.247453 0.0245449C0.320265 0.000202428 0.400405 -0.00621938 0.477722 0.00611C0.555039 0.0184394 0.626134 0.0489606 0.682069 0.0938426L9.8853 7.53864C9.95876 7.59958 10 7.6814 10 7.76658C10 7.85176 9.95876 7.93358 9.8853 7.99455L0.682069 15.4393C0.626134 15.4842 0.555039 15.5147 0.477722 15.5271C0.400405 15.5394 0.320265 15.533 0.247453 15.5086C0.174603 15.4843 0.112289 15.4431 0.068266 15.3902C0.0242431 15.3373 0.000496356 15.2751 0 15.2114Z" fill="#E15546"/>
</svg>
