<svg width="19" height="17" viewBox="0 0 19 17" fill="none" xmlns="http://www.w3.org/2000/svg">
<path id="Vector" d="M9.87479 1.03904L12.1235 6.43927L18.729 8.27768C18.8079 8.29898 18.8765 8.34002 18.9252 8.39504C18.9738 8.45006 19 8.51621 19 8.58412C19 8.65199 18.9738 8.71814 18.9252 8.77316C18.8765 8.82815 18.8079 8.86923 18.729 8.8905L12.1235 10.7289L9.87479 16.1292C9.84878 16.1936 9.79854 16.2497 9.73124 16.2895C9.66394 16.3293 9.58306 16.3507 9.5 16.3507C9.41698 16.3507 9.33602 16.3293 9.26876 16.2895C9.20146 16.2497 9.15122 16.1936 9.12521 16.1292L6.87342 10.7289L0.270975 8.8905C0.192131 8.86923 0.1235 8.82815 0.0748478 8.77316C0.0261951 8.71814 0 8.65199 0 8.58412C0 8.51621 0.0261951 8.45006 0.0748478 8.39504C0.1235 8.34002 0.192131 8.29898 0.270975 8.27768L6.87342 6.43927L9.12521 1.03904C9.15122 0.974573 9.20146 0.918467 9.26876 0.878692C9.33602 0.838919 9.41698 0.817505 9.5 0.817505C9.58306 0.817505 9.66394 0.838919 9.73124 0.878692C9.79854 0.918467 9.84878 0.974573 9.87479 1.03904Z" fill="#EBB22A"/>
</svg>
