<svg width="14" height="15" viewBox="0 0 14 15" fill="none" xmlns="http://www.w3.org/2000/svg">
<path id="Vector" d="M14 6.44861C14.0003 5.49396 13.7174 4.55392 13.1763 3.71159C12.6351 2.86929 11.8524 2.15062 10.8973 1.6191C9.94213 1.08759 8.84404 0.759612 7.69999 0.664145C6.55597 0.568678 5.40121 0.708663 4.3378 1.07173C3.27439 1.4348 2.33505 2.00978 1.60286 2.74584C0.870639 3.4819 0.368098 4.35637 0.139595 5.29201C-0.0888713 6.22762 -0.0362774 7.19559 0.29279 8.11032C0.621858 9.02505 1.21723 9.85839 2.0263 10.5367L6.72525 14.4381C6.76122 14.4682 6.80404 14.4921 6.85118 14.5084C6.89833 14.5247 6.94892 14.5331 7.00001 14.5331C7.05106 14.5331 7.10165 14.5247 7.14879 14.5084C7.19598 14.4921 7.23876 14.4682 7.27476 14.4381L11.9581 10.5367C13.2637 9.4522 13.9981 7.98203 14 6.44861Z" fill="#79BE4D"/>
</svg>
